<svg xmlns="http://www.w3.org/2000/svg" width="200" height="100">
 <path d="M0 0h200v100H0z" fill="#f0f0f0"/>
 <path d="M20 42.028h68.817v15.99H20zM41.987 21.61q0-5.425 3.427-8.424 3.426-3.14 8.852-3.14 5.71 0 8.995 3.14 3.426 2.999 3.426 8.424 0 5.426-3.426 8.567-3.284 3.14-8.995 3.14-5.426 0-8.852-3.14-3.427-3.141-3.427-8.567zm0 56.682q0-5.426 3.427-8.424 3.426-3.141 8.852-3.141 5.71 0 8.995 3.14 3.426 3 3.426 8.425 0 5.425-3.426 8.566Q59.977 90 54.266 90q-5.426 0-8.852-3.141-3.427-3.141-3.427-8.566z" fill="#660000"/>
 <path d="M121.457 20.183l18.703 18.561 18.56-18.56L170 31.747 151.44 49.88 170 68.298l-11.28 11.708-18.56-18.704-18.846 18.847-11.28-11.565 18.704-18.704-18.418-18.132z" fill="#ff9900"/>
</svg>
